<svg width="45" height="40" viewBox="0 0 45 40" fill="none" xmlns="http://www.w3.org/2000/svg">
<path d="M14.6614 4.21837L22.2742 12.3745L29.887 4.21837H14.6614ZM33.4019 6.59504L27.1029 13.3392H38.3263L33.4019 6.59504ZM37.7521 17.5488H22.2742H6.79635L22.2742 34.7643L37.7521 17.5488ZM6.22213 13.3392H17.4455L11.1465 6.59504L6.22213 13.3392ZM44.0076 16.856L23.8229 39.3072C23.4314 39.7457 22.8659 40 22.2742 40C21.6826 40 21.1258 39.7457 20.7256 39.3072L0.540812 16.856C-0.129113 16.1105 -0.181315 14.9967 0.410307 14.1899L10.1547 0.859461C10.5462 0.32449 11.1726 0 11.8338 0H32.7146C33.3758 0 34.0023 0.31572 34.3938 0.859461L44.1382 14.1899C44.7298 14.9967 44.6689 16.1105 44.0076 16.856Z" fill="white"/>
</svg>
