<svg width="36" height="40" viewBox="0 0 36 40" fill="none" xmlns="http://www.w3.org/2000/svg">
<path fill-rule="evenodd" clip-rule="evenodd" d="M35.5366 2.66874V21.8768L35.5331 21.881C35.5353 21.9977 35.5364 22.1146 35.5364 22.2318C35.5364 32.0449 27.5813 40 17.7682 40C7.9551 40 0 32.0449 0 22.2318C0 22.1145 0.00113599 21.9975 0.00339757 21.8808L0 21.8768V2.66874C0 -3.49447 6.43071 2.31458 8.52609 7.05337C11.2188 5.41026 14.383 4.46355 17.7682 4.46355C21.1536 4.46355 24.3178 5.4103 27.0105 7.05347C29.1058 2.31466 35.5366 -3.49452 35.5366 2.66874ZM25.15 23.7768C27.1885 23.7768 28.841 22.6278 28.841 20.2575C28.841 17.8872 27.1885 15.9657 25.15 15.9657C23.1116 15.9657 21.4591 17.8872 21.4591 20.2575C21.4591 22.6278 23.1116 23.7768 25.15 23.7768ZM10.7296 23.7768C12.768 23.7768 14.4205 22.6279 14.4205 20.2575C14.4205 17.8872 12.768 15.9657 10.7296 15.9657C8.69108 15.9657 7.03857 17.8872 7.03857 20.2575C7.03857 22.6279 8.69108 23.7768 10.7296 23.7768ZM21.974 28.1478C21.6237 27.8067 20.2748 27.1245 17.6822 27.1245C15.0896 27.1245 13.7407 27.8067 13.3904 28.1478C14.0962 28.8416 15.8067 30.1805 17.3389 30.365V32.6835L15.9656 33.4764L16.2231 33.9224L17.673 33.0853L19.1229 33.9224L19.3804 33.4764L18.0255 32.6941V30.365C19.5577 30.1805 21.2682 28.8416 21.974 28.1478Z" fill="white"/>
</svg>
