<svg width="32" height="40" viewBox="0 0 32 40" fill="none" xmlns="http://www.w3.org/2000/svg">
<path d="M31.3043 24.6242C26.8121 35.7629 16.0502 29.0242 16.0502 29.0242C12.7482 35.6896 7.2939 39.9756 0.999815 40C-0.312811 40 -0.353576 38.0118 0.999815 38.0118C6.25032 37.9874 10.8241 34.5325 13.8163 29.0405C10.4654 30.3361 4.14686 31.3139 0.641085 22.3426C9.52781 18.6841 13.6124 23.2552 15.1778 26.0501C15.9849 24.0619 16.5638 21.9026 16.9388 19.5559C16.9388 19.5559 5.54916 21.3404 4.75017 11.5624C14.4603 7.6594 17.1916 17.8122 17.1916 17.8122C17.322 16.4514 17.4606 13.5262 17.4606 13.461C17.4606 13.461 8.79404 7.45569 14.3544 0C24.5129 3.50377 19.3603 13.2328 19.3603 13.2328C19.401 13.3632 19.401 15.1721 19.3603 15.9544C19.3603 15.9544 23.0454 8.70238 30.4809 11.2691C30.1385 22.1878 18.9119 19.9389 18.9119 19.9389C18.5531 22.1715 17.9987 24.2901 17.2813 26.2538C17.2813 26.2538 24.0482 18.7737 31.3043 24.6242Z" fill="white"/>
</svg>
