<svg width="39" height="40" viewBox="0 0 39 40" fill="none" xmlns="http://www.w3.org/2000/svg">
<path fill-rule="evenodd" clip-rule="evenodd" d="M38.4516 16.3419C38.4516 25.3673 29.8439 26.3226 19.2258 26.3226C8.60769 26.3226 0 25.3673 0 16.3419C0 7.31653 8.60769 0 19.2258 0C29.8439 0 38.4516 7.31653 38.4516 16.3419ZM20.9225 3.58932C21.1242 5.14408 18.9388 6.7091 16.0413 7.0849C13.1438 7.4607 10.6314 6.50497 10.4298 4.95021C10.2281 3.39546 12.4135 1.83044 15.311 1.45464C18.2085 1.07884 20.7209 2.03457 20.9225 3.58932ZM33.5394 14.7275C35.5233 13.9306 36.3778 11.4084 35.4481 9.09394C34.5184 6.77949 32.1566 5.54925 30.1728 6.34612C28.189 7.143 27.3344 9.66522 28.2641 11.9797C29.1938 14.2941 31.5556 15.5244 33.5394 14.7275ZM7.91891 23.8389C11.2946 24.3911 14.3856 22.6723 14.8227 19.9998C15.2599 17.3274 12.8777 14.7133 9.50194 14.1611C6.12619 13.6089 3.03525 15.3278 2.5981 18.0002C2.16096 20.6727 4.54317 23.2868 7.91891 23.8389ZM23.2258 24.9033C23.2258 25.0535 23.2315 25.2024 23.2427 25.3497C27.8102 25.1815 31.7779 24.6204 34.5145 22.9853C33.7224 20.7209 31.567 19.0968 29.0323 19.0968C25.8255 19.0968 23.2258 21.6964 23.2258 24.9033ZM11.9334 35.3792C12.5111 34.561 13.5281 32.3886 13.9823 28.0272C15.6608 28.1044 17.4174 28.1291 19.2259 28.1291C20.9424 28.1291 22.6119 28.1068 24.2124 28.0386C24.6672 32.3924 25.6829 34.5617 26.2601 35.3792C27.0199 36.4553 27.7796 40 19.0968 40C10.4138 40.0001 11.1736 36.4553 11.9334 35.3792Z" fill="white"/>
</svg>
